<svg xmlns="http://www.w3.org/2000/svg" viewBox="2179.227 -1041.207 582.73 170.166"><defs><style>.a{fill:#1772cb;}.b{fill:#22a9f0;}</style></defs><g transform="translate(2168.227 -1041.207)"><path class="a" d="M49.851,76.537c-7.752,0-13.346,2.551-13.346,8.636,0,17.468,61.333,8.636,61.137,49.655,0,23.748-20.9,36.309-47.3,36.309-18.743,0-37.094-5.594-50.342-16.192l1.276-2.65a20.749,20.749,0,0,1,26.5-10.206A63.642,63.642,0,0,0,51.225,147c8.439,0,14.72-2.846,14.72-9.028,0-18.547-60.253-8.636-60.253-49.459C5.692,64.565,26.2,52.2,51.421,52.2A86.216,86.216,0,0,1,96.759,65.154L85.277,87.822C72.52,80.659,59.566,76.537,49.851,76.537Z" transform="translate(11 -0.975)"/><path class="a" d="M224.78,121.882H141.465c3.926,14.72,15.113,23.356,30.029,23.356a41.255,41.255,0,0,0,15.8-3.14,26.055,26.055,0,0,1,28.557,5.986l2.552,2.551c-11.678,12.953-28.753,20.51-49.655,20.51-37.094,0-60.646-23.748-60.646-58.978,0-35.818,24.435-59.567,59.763-59.567C208.588,52.6,227.625,79.586,224.78,121.882Zm-31.01-19.627c-.393-15.309-10.4-25.22-25.711-25.22-14.72,0-24.631,9.911-27.183,25.22Z" transform="translate(4.981 -0.982)"/><path class="a" d="M271.97,17V170.479H240.7V17Z" transform="translate(-0.495 -0.317)"/><path class="a" d="M327.47,0V170.162H296.2V0Z" transform="translate(-5.532)"/><path class="a" d="M382.27,45V171H351V66.785Z" transform="translate(-9.554 -0.84)"/><path class="a" d="M458.242,80.862c-16.192,0-27.673,12.561-27.673,31.108,0,18.743,11.481,31.5,27.673,31.5a35.837,35.837,0,0,0,15.309-3.14,30.886,30.886,0,0,1,30.519,2.355l4.023,2.748c-9.616,16-27.379,25.416-50.538,25.711-32.678.392-59.763-25.318-60.156-58C397.007,77.035,421.05,52.6,456.967,52.6c22.276,0,39.94,8.832,50.342,24.435L484.836,93.227A31.962,31.962,0,0,0,458.242,80.862Z" transform="translate(-12.421 -0.982)"/><path class="a" d="M564.551,76.535c-7.753,0-13.345,2.551-13.345,8.636,0,17.468,61.332,8.636,61.136,49.655,0,23.748-20.9,36.309-47.3,36.309-18.742,0-37.093-5.594-50.342-16.192l10.794-22.472c12.071,9.323,27.673,14.426,40.333,14.426,8.439,0,14.72-2.846,14.72-9.028,0-18.547-60.254-8.636-60.254-49.459,0-23.944,20.51-36.309,45.729-36.309A86.214,86.214,0,0,1,611.36,65.053l-2.845,5.692a19.8,19.8,0,0,1-24.337,9.715C577.013,77.909,570.242,76.535,564.551,76.535Z" transform="translate(-18.612 -0.973)"/><path class="b" d="M350.9,55.962V33.981c0-9.224,7.011-16.781,15.773-16.781h15.5V34.177Z" transform="translate(-9.553 -0.321)"/></g></svg>